<svg height="200" width="650" xmlns="http://www.w3.org/2000/svg" viewBox="0 0 600 200"><path d="M125.102 65.503c.095.954.143 1.86.143 2.718v2.575c0 3.718-.906 7.294-2.717 10.726-1.717 3.338-4.195 6.34-7.437 9.01-3.145 2.575-6.91 4.625-11.297 6.15-4.386 1.526-9.2 2.288-14.444 2.288-7.82 0-13.683-1.763-17.592-5.29-3.813-3.53-5.72-8.105-5.72-13.73 0-4.577 1.525-9.296 4.576-14.158 3.146-4.863 8.295-9.296 15.445-13.3 7.15-4.005 16.59-7.294 28.316-9.87 11.727-2.668 26.267-4.003 43.62-4.003 5.338 0 10.2.143 14.586.43 4.386.285 8.152.428 11.298.428 2.765 0 5.053-.143 6.865-.43 1.906-.285 3.527-.428 4.862-.428 1.144 0 2.193.382 3.146 1.144.954.67 1.43 1.67 1.43 3.005 0 .858-.286 1.573-.858 2.145-.476.476-1.382.81-2.717 1-1.335.19-3.146.334-5.434.43h-8.438c-6.674 0-12.25 1.192-16.733 3.575-4.385 2.288-8.485 5.816-12.3 10.583-3.812 4.672-7.77 10.583-11.87 17.734-4.098 7.055-9.2 15.302-15.3 24.74-2.1 3.242-4.768 6.913-8.01 11.013-3.146 4.1-6.912 7.96-11.298 11.584-4.385 3.622-9.39 6.673-15.016 9.152-5.626 2.478-11.966 3.718-19.022 3.718-2.67 0-5.482-.334-8.437-1-2.955-.573-5.672-1.527-8.15-2.86-2.385-1.432-4.387-3.29-6.008-5.58-1.525-2.287-2.288-5.1-2.288-8.437 0-2.097.572-3.86 1.716-5.29 1.24-1.527 2.956-2.29 5.15-2.29M203.403 35.806c-19.657 31.498-30.634 50.85-61.39 100.646 1.908-2.384 21.55-27.474 24.124-30.525 2.574-3.146 5.34-6.102 8.294-8.867 3.052-2.765 6.246-5.1 9.583-7.007 3.337-1.907 6.674-2.86 10.01-2.86 5.817 0 8.725 2.907 8.725 8.723 0 1.526-.572 3.337-1.716 5.435-1.05 2.098-2.43 4.34-4.148 6.722-1.62 2.288-3.384 4.624-5.29 7.008-1.908 2.383-3.72 4.72-5.436 7.007-1.62 2.193-3.003 4.29-4.147 6.293-1.048 1.907-1.572 3.528-1.572 4.862 0 1.05.286 1.955.858 2.718.667.667 1.526 1 2.574 1 2.193 0 4.577-.667 7.15-2 2.67-1.432 5.388-3.243 8.153-5.436 2.86-2.288 5.672-4.815 8.437-7.58 2.765-2.765 5.292-5.482 7.58-8.15 2.384-2.766 4.48-5.34 6.293-7.724 1.906-2.48 3.29-4.48 4.147-6.007M213.706 112.81c3.146-.666 14.227-2.496 18.327-3.83 4.1-1.43 7.913-3.004 11.44-4.72 3.624-1.812 6.675-3.766 9.154-5.864 2.478-2.192 3.718-4.433 3.718-6.72 0-1.908-.667-3.338-2.002-4.292-1.335-1.048-3.194-1.573-5.578-1.573-4.29 0-8.77 1.288-13.443 3.863-4.672 2.574-8.962 5.815-12.87 9.724-3.91 3.91-7.152 8.2-9.726 12.872-2.48 4.575-3.718 8.96-3.718 13.156 0 3.813 1.096 6.77 3.29 8.867 2.192 2.002 5.29 3.003 9.295 3.003 3.24 0 6.53-.572 9.868-1.716 3.433-1.24 6.818-2.86 10.155-4.863 3.337-2.097 6.53-4.433 9.58-7.007 3.148-2.67 6.056-5.387 8.725-8.152 2.765-2.86 5.196-5.72 7.294-8.58M354.163 52.775c0-1.716-.19-3.384-.572-5.005-.285-1.716-.857-3.194-1.715-4.433-.858-1.335-2.05-2.384-3.575-3.147-1.526-.762-3.48-1.08-5.864-1.144l-4.16-.03c-4.025.64-8.14 2.318-12.43 4.607-4.194 2.192-8.485 5.053-12.87 8.58-4.386 3.528-8.676 7.58-12.872 12.156-4.1 4.576-7.77 9.534-11.01 14.873-3.243 5.243-5.865 10.773-7.867 16.59-1.907 5.72-2.86 11.535-2.86 17.447 0 7.34 1.86 13.204 5.577 17.59 3.814 4.29 9.487 6.436 17.02 6.436 4.29 0 8.675-1 13.156-3.003 4.48-2.098 8.77-4.672 12.87-7.723 4.1-3.146 7.867-6.58 11.3-10.297 3.526-3.718 6.296-7.246 9.083-11.298 2.69-3.766 4.883-7.246 7.076-11.155 2.192-3.91 4.147-8.01 5.863-12.3 1.81-4.29 3.29-8.58 4.433-12.87 1.144-4.386 1.716-8.486 1.716-12.3 0-7.245-1.334-12.727-4.004-16.446-2.67-3.718-6.912-5.577-12.728-5.577-2.48 0-4.815.524-7.008 1.573-2.097.953-4.966 3.202-6.916 5.2-2.523 2.856-4.19 5.24-5.526 7.814-1.335 2.48-2.43 4.958-3.29 7.437-.857 2.48-1.477 4.958-1.858 7.437-.382 2.384-.572 4.624-.572 6.722 0 7.054 1.62 13.49 4.862 19.306 3.242 5.72 8.01 10.44 14.91 14.67 2.516 1.276 6.637 2.634 8.83 3.206 2.193.572 4.815.858 7.866.858 1.81 0 3.718-.238 5.72-.715 2.003-.477 4.005-1.144 6.007-2.002 2.002-.858 3.91-1.907 5.72-3.146 1.907-1.24 3.576-2.622 5.006-4.148M397.943 85.712l-36.417 50.064 17.135-22.363c2.003-2.384 4.34-5.15 7.008-8.295 2.67-3.242 5.53-6.293 8.58-9.153 3.052-2.86 6.198-5.244 9.44-7.15 3.337-2.003 6.626-3.004 9.868-3.004 2.86 0 5.053.812 6.578 2.432 1.62 1.526 2.432 3.528 2.432 6.007 0 1.524-.572 3.336-1.716 5.433-1.05 2.098-2.384 4.34-4.005 6.722-1.62 2.384-3.384 4.815-5.29 7.294-1.908 2.478-3.672 4.86-5.293 7.15-1.62 2.192-3.003 4.242-4.147 6.15-1.05 1.81-1.573 3.336-1.573 4.575 0 2.67 1.335 4.005 4.004 4.005 3.05 0 6.293-1 9.725-3.004 3.433-2.097 7.533-5.577 12.3-10.44 1.907-1.906 3.814-4.004 5.72-6.292 2.003-2.288 3.91-4.53 5.72-6.722 1.813-2.288 3.433-4.433 4.863-6.435 1.526-2.002 2.718-3.67 3.576-5.006M437.142 112.373c3.147-.667 13.41-2.06 17.51-3.394 4.1-1.43 7.913-3.004 11.44-4.72 3.624-1.812 6.675-3.766 9.154-5.864 2.48-2.192 3.718-4.433 3.718-6.72 0-1.908-.667-3.338-2.002-4.292-1.335-1.048-3.194-1.573-5.578-1.573-4.29 0-8.77 1.288-13.443 3.863-4.67 2.574-8.96 5.815-12.87 9.724-3.91 3.91-7.15 8.2-9.725 12.872-2.48 4.575-3.718 8.96-3.718 13.156 0 3.813 1.096 6.77 3.29 8.867 2.192 2.002 5.29 3.003 9.295 3.003 3.242 0 6.53-.572 9.868-1.716 3.432-1.24 6.817-2.86 10.154-4.863 3.337-2.097 6.53-4.433 9.582-7.007 3.146-2.67 6.054-5.387 8.723-8.152 2.764-2.86 5.195-5.72 7.293-8.58" stroke="#fff" stroke-width="5" stroke-linecap="round" stroke-linejoin="round" fill="none"/><path d="M494.034 129.28q1.036 0 1.797.76.76.76.76 1.797 0 1.036-.76 1.797-.76.76-1.796.76-1.037 0-1.797-.76t-.76-1.797q0-1.037.76-1.797t1.797-.76zM519.686 101.382c2.817 2.975 31.284-21.24 31.115-27.513-.49-1.664-2.545-.376-4.518 3.32-5.244 7.532-14.392 20.627-18.573 26.442-3.677 5.112-6.926 10.775-8.282 14.63-2.193 3.432-3.495 9.128-3.495 9.128-1.04 4.47-.65 3.818-.65 5.057 0 2.48 3.15 3.133 5.152 3.133 1.907 0 4.1-.668 6.58-2.003 2.573-1.43 5.243-3.24 8.008-5.434 2.765-2.193 5.53-4.672 8.294-7.437 2.765-2.765 5.34-5.482 7.723-8.15 2.48-2.766 4.624-5.388 6.436-7.867 1.906-2.575 3.29-4.673 4.147-6.294m-10.087-33.322c-.053 3.823-.367 4.483-.053 2.456M599.18 98.11c-.19-3.623-1.383-6.578-3.576-8.866m0 0c-2.097-2.29-5.1-3.433-9.01-3.433-3.337 0-6.674.67-10.01 2.003-3.242 1.24-6.34 2.956-9.296 5.15-2.956 2.096-5.72 4.528-8.295 7.293-2.48 2.67-4.672 5.434-6.58 8.294-1.81 2.765-3.24 5.53-4.29 8.295-1.048 2.765-1.572 5.196-1.572 7.294 0 4.003 1.05 7.197 3.147 9.58 2.098 2.384 5.196 3.576 9.296 3.576 4.48 0 8.867-1.144 13.157-3.433 4.29-2.288 8.2-5.148 11.727-8.58 3.623-3.433 6.722-7.2 9.296-11.298 2.574-4.1 4.338-7.96 5.29-11.584h.287c1.05 1.622 2.527 3.052 4.434 4.29 1.907 1.145 4.195 1.717 6.864 1.717" stroke="#fff" stroke-width="5" stroke-linecap="round" stroke-linejoin="round" fill="none"/></svg>